name GIL03_xfast2EmgEnv.mot
datacolumns 51
datarows 11
range 0.05925926 0.06851852
endheader
                time	   rect_fem_l_emgRec	   rect_fem_l_emgEnv	   rect_fem_l_emgAve	   rect_fem_l_emgSDp	   rect_fem_l_emgSDm	   rect_fem_r_emgRec	   rect_fem_r_emgEnv	   rect_fem_r_emgAve	   rect_fem_r_emgSDp	   rect_fem_r_emgSDm	   med_hams_l_emgRec	   med_hams_l_emgEnv	   med_hams_l_emgAve	   med_hams_l_emgSDp	   med_hams_l_emgSDm	   med_hams_r_emgRec	   med_hams_r_emgEnv	   med_hams_r_emgAve	   med_hams_r_emgSDp	   med_hams_r_emgSDm	   lat_hams_l_emgRec	   lat_hams_l_emgEnv	   lat_hams_l_emgAve	   lat_hams_l_emgSDp	   lat_hams_l_emgSDm	   lat_hams_r_emgRec	   lat_hams_r_emgEnv	   lat_hams_r_emgAve	   lat_hams_r_emgSDp	   lat_hams_r_emgSDm	    tib_ant_l_emgRec	    tib_ant_l_emgEnv	    tib_ant_l_emgAve	    tib_ant_l_emgSDp	    tib_ant_l_emgSDm	    tib_ant_r_emgRec	    tib_ant_r_emgEnv	    tib_ant_r_emgAve	    tib_ant_r_emgSDp	    tib_ant_r_emgSDm	    gas_sol_l_emgRec	    gas_sol_l_emgEnv	    gas_sol_l_emgAve	    gas_sol_l_emgSDp	    gas_sol_l_emgSDm	    gas_sol_r_emgRec	    gas_sol_r_emgEnv	    gas_sol_r_emgAve	    gas_sol_r_emgSDp	    gas_sol_r_emgSDm	
          0.05925926	          0.08194831	          0.29391418	          0.33483109	          0.38830072	          0.28136146	          0.17366016	          0.65431900	          0.53854579	          0.73062764	          0.34646393	          0.07605641	          0.16302095	          0.27296788	          0.53836870	          0.00756705	          0.11323848	          0.29096564	          0.29370943	          0.53005108	          0.05736777	          0.15484551	          0.53907644	          0.72811931	          0.88815051	          0.56808811	          0.13559054	          0.31167396	          0.16819042	          0.24834056	          0.08804028	          0.22109233	          0.55606974	          0.63523656	          0.84111409	          0.42935903	          0.12269526	          0.69711773	          0.61908364	          0.65847960	          0.57968768	          0.05399060	          0.08615458	          0.10397714	          0.11785479	          0.09009948	          0.07401637	          0.20252289	          0.02536309	         -0.02137093	          0.07209711	
          0.06018519	          0.01829990	          0.29108024	          0.33201188	          0.38477841	          0.27924535	          0.20117564	          0.66780038	          0.54037625	          0.73297723	          0.34777527	          0.00219420	          0.16284728	          0.27072829	          0.53492031	          0.00653628	          0.06126494	          0.28999848	          0.29514450	          0.53309681	          0.05719219	          0.17547981	          0.53442441	          0.72177696	          0.88067868	          0.56287524	          0.10884910	          0.31416632	          0.16951609	          0.25019840	          0.08883377	          0.00851818	          0.55499408	          0.63005662	          0.83540280	          0.42471044	          0.02577455	          0.71132759	          0.62216038	          0.66132595	          0.58299480	          0.00328098	          0.08596153	          0.10459758	          0.11865444	          0.09054073	          0.10860155	          0.19720454	          0.02479802	         -0.02267976	          0.07227579	
          0.06111111	          0.08722436	          0.28813377	          0.32911053	          0.38118086	          0.27704021	          0.25718650	          0.68125606	          0.54208010	          0.73517260	          0.34898761	          0.06292068	          0.16252322	          0.26845759	          0.53132048	          0.00559470	          0.02429122	          0.28887883	          0.29651061	          0.53604963	          0.05697158	          0.21697912	          0.52961688	          0.71524388	          0.87301634	          0.55747141	          0.09947250	          0.31650592	          0.17080814	          0.25203019	          0.08958609	          0.25084109	          0.55379090	          0.62470889	          0.82947500	          0.41994278	          0.05709089	          0.72535472	          0.62510890	          0.66407079	          0.58614701	          0.05466688	          0.08577473	          0.10526079	          0.11954155	          0.09098003	          0.19135901	          0.19199193	          0.02429734	         -0.02383949	          0.07243416	
          0.06203704	          0.16475146	          0.28507940	          0.32612908	          0.37751087	          0.27474729	          0.43605014	          0.69466927	          0.54365677	          0.73721260	          0.35010093	          0.07058000	          0.16205113	          0.26615712	          0.52757215	          0.00474209	          0.00332396	          0.28761039	          0.29780802	          0.53890991	          0.05670613	          0.41044027	          0.52465683	          0.70852458	          0.86516891	          0.55188026	          0.12898366	          0.31868882	          0.17206542	          0.25383489	          0.09029596	          0.17452188	          0.55246791	          0.61919707	          0.82333523	          0.41505891	          0.09864885	          0.73918149	          0.62792826	          0.66671413	          0.58914238	          0.07176601	          0.08559623	          0.10596684	          0.12051657	          0.09141711	          0.11541906	          0.18688618	          0.02386178	         -0.02484736	          0.07257093	
          0.06296296	          0.24702277	          0.28192199	          0.32306939	          0.37377103	          0.27236776	          0.41989575	          0.70802293	          0.54510599	          0.73909651	          0.35111548	          0.06572095	          0.16143409	          0.26382813	          0.52367851	          0.00397775	          0.08183428	          0.28619700	          0.29903701	          0.54167798	          0.05639604	          0.31701483	          0.51954775	          0.70162380	          0.85714196	          0.54610564	         -0.00021228	          0.32071121	          0.17328696	          0.25561167	          0.09096225	          0.01501138	          0.55103293	          0.61352473	          0.81698816	          0.41006131	          0.18656793	          0.75279072	          0.63061750	          0.66925603	          0.59197897	          0.06748685	          0.08542822	          0.10671580	          0.12157984	          0.09185176	          0.03004833	          0.18188820	          0.02349206	         -0.02570068	          0.07268481	
          0.06388889	          0.27992018	          0.27866659	          0.31993356	          0.36996412	          0.26990301	          0.02445902	          0.72129963	          0.54642755	          0.74082363	          0.35203147	          0.06308840	          0.16067599	          0.26147193	          0.51964271	          0.00330114	          0.12839738	          0.28464267	          0.30019799	          0.54435447	          0.05604151	          0.10877158	          0.51429360	          0.69454670	          0.84894139	          0.54015201	          0.09921858	          0.32256947	          0.17447175	          0.25735968	          0.09158383	          0.09690820	          0.54949385	          0.60769582	          0.81043871	          0.40495293	          0.32113226	          0.76616572	          0.63317615	          0.67169695	          0.59465535	          0.04757967	          0.08527300	          0.10750759	          0.12273146	          0.09228373	          0.04129795	          0.17699865	          0.02318883	         -0.02639693	          0.07277458	
          0.06481482	          0.20788346	          0.27531849	          0.31672356	          0.36609276	          0.26735435	          0.14389099	          0.73448165	          0.54762143	          0.74239346	          0.35284939	          0.06900446	          0.15978142	          0.25909001	          0.51546854	          0.00271147	          0.13251777	          0.28295155	          0.30129123	          0.54693975	          0.05564271	          0.18726712	          0.50889886	          0.68729854	          0.84057325	          0.53402382	          0.16876617	          0.32426014	          0.17561895	          0.25907815	          0.09215975	          0.03129256	          0.54785853	          0.60171443	          0.80369212	          0.39973675	          0.17926777	          0.77929032	          0.63560331	          0.67403689	          0.59716973	          0.02172193	          0.08513300	          0.10834207	          0.12397135	          0.09271280	          0.00305508	          0.17221799	          0.02295266	         -0.02693380	          0.07283911	
          0.06574074	          0.11655438	          0.27188310	          0.31344181	          0.36216003	          0.26472360	          0.13561345	          0.74755106	          0.54868704	          0.74380501	          0.35356908	          0.05849552	          0.15875571	          0.25668380	          0.51115978	          0.00220782	          0.11808980	          0.28112788	          0.30231720	          0.54943438	          0.05520003	          0.04937627	          0.50336848	          0.67988521	          0.83204420	          0.52772622	          0.19174741	          0.32577994	          0.17672761	          0.26076623	          0.09268899	          0.19472532	          0.54613482	          0.59558499	          0.79675409	          0.39441589	          0.57218712	          0.79214889	          0.63789839	          0.67627615	          0.59952062	          0.00138617	          0.08501080	          0.10921907	          0.12529934	          0.09313880	          0.00865368	          0.16754645	          0.02278409	         -0.02730906	          0.07287724	
          0.06666667	          0.01179040	          0.26836601	          0.31009036	          0.35816850	          0.26201222	          0.29418607	          0.76048965	          0.54962474	          0.74505825	          0.35419123	          0.04816045	          0.15760488	          0.25425467	          0.50672022	          0.00178912	          0.09822960	          0.27917603	          0.30327639	          0.55183902	          0.05471376	          0.14045085	          0.49770792	          0.67231196	          0.82336016	          0.52126376	          0.18827014	          0.32712578	          0.17779700	          0.26242331	          0.09317070	          0.19225206	          0.54433039	          0.58931208	          0.78963041	          0.38899374	          0.95530510	          0.80472635	          0.64006060	          0.67841477	          0.60170644	          0.02894991	          0.08490907	          0.11013831	          0.12671506	          0.09356156	          0.03566131	          0.16298404	          0.02268361	         -0.02752068	          0.07288791	
          0.06759260	          0.16954784	          0.26477292	          0.30667156	          0.35412109	          0.25922203	          0.35278196	          0.77327902	          0.55043435	          0.74615261	          0.35471609	          0.07342355	          0.15633565	          0.25180429	          0.50215426	          0.00145432	          0.07720445	          0.27710045	          0.30416912	          0.55415414	          0.05418409	          0.13262569	          0.49192311	          0.66458547	          0.81452845	          0.51464249	          0.17357080	          0.32829479	          0.17882639	          0.26404871	          0.09360407	          0.17138045	          0.54245278	          0.58290011	          0.78232686	          0.38347335	          0.57615201	          0.81700820	          0.64208990	          0.68045349	          0.60372631	          0.05802345	          0.08483062	          0.11109945	          0.12821798	          0.09398093	          0.06417451	          0.15853052	          0.02265167	         -0.02756679	          0.07287013	
          0.06851852	          0.26568917	          0.26110964	          0.30318785	          0.35002074	          0.25635495	          0.27962498	          0.78590061	          0.55111581	          0.74708779	          0.35514383	          0.11525068	          0.15495535	          0.24933413	          0.49746624	          0.00120202	          0.05868517	          0.27490563	          0.30499607	          0.55638048	          0.05361167	          0.38344279	          0.48602046	          0.65671182	          0.80555581	          0.50786783	          0.14237188	          0.32928427	          0.17981507	          0.26564176	          0.09398837	          0.04603488	          0.54050927	          0.57635409	          0.77484995	          0.37785822	          0.19393138	          0.82898049	          0.64398545	          0.68239225	          0.60557865	          0.06258997	          0.08477837	          0.11210205	          0.12980736	          0.09439675	          0.05874068	          0.15418545	          0.02268863	         -0.02744563	          0.07282289	
